M48
;DRILL file {KiCad (5.0.0)} date 10/27/20 08:58:51
;FORMAT={-:-/ absolute / metric / decimal}
FMAT,2
METRIC,TZ
T1C0.700
T2C0.762
T3C1.000
T4C2.500
%
G90
G05
M71
T1
X157.48Y-96.52
X159.892Y-87.505
T2
X157.48Y-72.39
X157.48Y-74.93
X157.48Y-77.47
X157.48Y-80.01
X160.02Y-72.39
X160.02Y-74.93
X160.02Y-77.47
X160.02Y-80.01
T3
X166.37Y-74.93
X166.37Y-77.47
X166.37Y-80.01
X166.37Y-82.55
X151.13Y-74.93
X151.13Y-77.47
X151.13Y-80.01
X151.13Y-82.55
T4
X186.69Y-68.58
X186.69Y-109.22
X147.32Y-68.58
X147.32Y-109.22
T0
M30
