G04 #@! TF.GenerationSoftware,KiCad,Pcbnew,(5.0.0)*
G04 #@! TF.CreationDate,2020-10-27T08:58:59-05:00*
G04 #@! TF.ProjectId,breakout_firstproject,627265616B6F75745F66697273747072,1.0*
G04 #@! TF.SameCoordinates,Original*
G04 #@! TF.FileFunction,Copper,L1,Top,Signal*
G04 #@! TF.FilePolarity,Positive*
%FSLAX46Y46*%
G04 Gerber Fmt 4.6, Leading zero omitted, Abs format (unit mm)*
G04 Created by KiCad (PCBNEW (5.0.0)) date 10/27/20 08:58:59*
%MOMM*%
%LPD*%
G01*
G04 APERTURE LIST*
G04 #@! TA.AperFunction,SMDPad,CuDef*
%ADD10R,1.600000X3.500000*%
G04 #@! TD*
G04 #@! TA.AperFunction,SMDPad,CuDef*
%ADD11R,1.200000X0.750000*%
G04 #@! TD*
G04 #@! TA.AperFunction,SMDPad,CuDef*
%ADD12R,1.200000X0.900000*%
G04 #@! TD*
G04 #@! TA.AperFunction,ComponentPad*
%ADD13O,1.700000X1.700000*%
G04 #@! TD*
G04 #@! TA.AperFunction,ComponentPad*
%ADD14R,1.700000X1.700000*%
G04 #@! TD*
G04 #@! TA.AperFunction,ComponentPad*
%ADD15R,1.524000X1.524000*%
G04 #@! TD*
G04 #@! TA.AperFunction,ComponentPad*
%ADD16C,1.524000*%
G04 #@! TD*
G04 #@! TA.AperFunction,SMDPad,CuDef*
%ADD17R,2.000000X1.500000*%
G04 #@! TD*
G04 #@! TA.AperFunction,SMDPad,CuDef*
%ADD18R,2.000000X3.800000*%
G04 #@! TD*
G04 #@! TA.AperFunction,ViaPad*
%ADD19C,1.905000*%
G04 #@! TD*
G04 #@! TA.AperFunction,Conductor*
%ADD20C,0.508000*%
G04 #@! TD*
G04 #@! TA.AperFunction,Conductor*
%ADD21C,0.250000*%
G04 #@! TD*
G04 #@! TA.AperFunction,Conductor*
%ADD22C,0.254000*%
G04 #@! TD*
G04 APERTURE END LIST*
D10*
G04 #@! TO.P,C1,2*
G04 #@! TO.N,GND*
X154940000Y-99850000D03*
G04 #@! TO.P,C1,1*
G04 #@! TO.N,VCC*
X154940000Y-105250000D03*
G04 #@! TD*
D11*
G04 #@! TO.P,C2,2*
G04 #@! TO.N,GND*
X163510000Y-102550000D03*
G04 #@! TO.P,C2,1*
G04 #@! TO.N,VCC*
X161610000Y-102550000D03*
G04 #@! TD*
D10*
G04 #@! TO.P,C3,1*
G04 #@! TO.N,+3V3*
X154940000Y-89690000D03*
G04 #@! TO.P,C3,2*
G04 #@! TO.N,GND*
X154940000Y-95090000D03*
G04 #@! TD*
D11*
G04 #@! TO.P,C4,1*
G04 #@! TO.N,+3V3*
X161610000Y-92390000D03*
G04 #@! TO.P,C4,2*
G04 #@! TO.N,GND*
X163510000Y-92390000D03*
G04 #@! TD*
D12*
G04 #@! TO.P,D1,2*
G04 #@! TO.N,+3V3*
X161460000Y-88900000D03*
G04 #@! TO.P,D1,1*
G04 #@! TO.N,Net-(D1-Pad1)*
X163660000Y-88900000D03*
G04 #@! TD*
D13*
G04 #@! TO.P,J1,4*
G04 #@! TO.N,MISO*
X151130000Y-82550000D03*
G04 #@! TO.P,J1,3*
G04 #@! TO.N,SCK*
X151130000Y-80010000D03*
G04 #@! TO.P,J1,2*
G04 #@! TO.N,CE*
X151130000Y-77470000D03*
D14*
G04 #@! TO.P,J1,1*
G04 #@! TO.N,GND*
X151130000Y-74930000D03*
G04 #@! TD*
G04 #@! TO.P,J2,1*
G04 #@! TO.N,VCC*
X166370000Y-74930000D03*
D13*
G04 #@! TO.P,J2,2*
G04 #@! TO.N,CSN*
X166370000Y-77470000D03*
G04 #@! TO.P,J2,3*
G04 #@! TO.N,MOSI*
X166370000Y-80010000D03*
G04 #@! TO.P,J2,4*
G04 #@! TO.N,IRQ*
X166370000Y-82550000D03*
G04 #@! TD*
D12*
G04 #@! TO.P,R1,2*
G04 #@! TO.N,GND*
X168740000Y-88900000D03*
G04 #@! TO.P,R1,1*
G04 #@! TO.N,Net-(D1-Pad1)*
X166540000Y-88900000D03*
G04 #@! TD*
D15*
G04 #@! TO.P,U1,1*
G04 #@! TO.N,GND*
X157480000Y-72390000D03*
D16*
G04 #@! TO.P,U1,2*
G04 #@! TO.N,+3V3*
X160020000Y-72390000D03*
G04 #@! TO.P,U1,3*
G04 #@! TO.N,CE*
X157480000Y-74930000D03*
G04 #@! TO.P,U1,4*
G04 #@! TO.N,CSN*
X160020000Y-74930000D03*
G04 #@! TO.P,U1,5*
G04 #@! TO.N,SCK*
X157480000Y-77470000D03*
G04 #@! TO.P,U1,6*
G04 #@! TO.N,MOSI*
X160020000Y-77470000D03*
G04 #@! TO.P,U1,7*
G04 #@! TO.N,MISO*
X157480000Y-80010000D03*
G04 #@! TO.P,U1,8*
G04 #@! TO.N,IRQ*
X160020000Y-80010000D03*
G04 #@! TD*
D17*
G04 #@! TO.P,U2,1*
G04 #@! TO.N,GND*
X160680000Y-95170000D03*
G04 #@! TO.P,U2,3*
G04 #@! TO.N,VCC*
X160680000Y-99770000D03*
G04 #@! TO.P,U2,2*
G04 #@! TO.N,+3V3*
X160680000Y-97470000D03*
D18*
G04 #@! TO.P,U2,4*
G04 #@! TO.N,N/C*
X166980000Y-97470000D03*
G04 #@! TD*
D19*
G04 #@! TO.N,VCC*
X159892185Y-87505228D03*
X157480000Y-96520000D03*
G04 #@! TD*
D20*
G04 #@! TO.N,VCC*
X161610000Y-100700000D02*
X160680000Y-99770000D01*
X161610000Y-102550000D02*
X161610000Y-100700000D01*
X159470000Y-99770000D02*
X160680000Y-99770000D01*
X154940000Y-104300000D02*
X159470000Y-99770000D01*
X154940000Y-105250000D02*
X154940000Y-104300000D01*
X166370000Y-74930000D02*
X167728000Y-74930000D01*
X167728000Y-74930000D02*
X168910000Y-76112000D01*
X168910000Y-76112000D02*
X168910000Y-83820000D01*
X168910000Y-83820000D02*
X167640000Y-85090000D01*
X165842012Y-86887988D02*
X162160689Y-86887988D01*
X162160689Y-86887988D02*
X161543449Y-87505228D01*
X167640000Y-85090000D02*
X165842012Y-86887988D01*
X161543449Y-87505228D02*
X159892185Y-87505228D01*
X159172000Y-99770000D02*
X160680000Y-99770000D01*
X157480000Y-98078000D02*
X159172000Y-99770000D01*
X157480000Y-96520000D02*
X157480000Y-98078000D01*
G04 #@! TO.N,+3V3*
X160670000Y-89690000D02*
X161460000Y-88900000D01*
X158750000Y-89755000D02*
X158750000Y-89690000D01*
X161385000Y-92390000D02*
X158750000Y-89755000D01*
X161610000Y-92390000D02*
X161385000Y-92390000D01*
X154940000Y-89690000D02*
X158750000Y-89690000D01*
X158750000Y-89690000D02*
X160670000Y-89690000D01*
X161610000Y-93273000D02*
X161610000Y-92390000D01*
X162334001Y-93997001D02*
X161610000Y-93273000D01*
X162334001Y-97323999D02*
X162334001Y-93997001D01*
X162188000Y-97470000D02*
X162334001Y-97323999D01*
X160680000Y-97470000D02*
X162188000Y-97470000D01*
X162714001Y-87795999D02*
X161610000Y-88900000D01*
X160020000Y-72390000D02*
X166472121Y-72390000D01*
X161610000Y-88900000D02*
X161460000Y-88900000D01*
X166218122Y-87795999D02*
X162714001Y-87795999D01*
X169818011Y-84196110D02*
X166218122Y-87795999D01*
X169818011Y-75735890D02*
X169818011Y-84196110D01*
X166472121Y-72390000D02*
X169818011Y-75735890D01*
D21*
G04 #@! TO.N,Net-(D1-Pad1)*
X163660000Y-88900000D02*
X166540000Y-88900000D01*
G04 #@! TO.N,MISO*
X154940000Y-82550000D02*
X157480000Y-80010000D01*
X151130000Y-82550000D02*
X154940000Y-82550000D01*
G04 #@! TO.N,SCK*
X154940000Y-80010000D02*
X157480000Y-77470000D01*
X151130000Y-80010000D02*
X154940000Y-80010000D01*
G04 #@! TO.N,CE*
X154940000Y-77470000D02*
X157480000Y-74930000D01*
X151130000Y-77470000D02*
X154940000Y-77470000D01*
G04 #@! TO.N,CSN*
X163830000Y-74930000D02*
X166370000Y-77470000D01*
X160020000Y-74930000D02*
X163830000Y-74930000D01*
G04 #@! TO.N,MOSI*
X163830000Y-77470000D02*
X166370000Y-80010000D01*
X160020000Y-77470000D02*
X163830000Y-77470000D01*
G04 #@! TO.N,IRQ*
X163830000Y-80010000D02*
X166370000Y-82550000D01*
X160020000Y-80010000D02*
X163830000Y-80010000D01*
G04 #@! TD*
D22*
G04 #@! TO.N,GND*
G36*
X189790000Y-69723000D02*
X188212793Y-69723000D01*
X188288026Y-69647767D01*
X188575000Y-68954950D01*
X188575000Y-68205050D01*
X188288026Y-67512233D01*
X187757767Y-66981974D01*
X187064950Y-66695000D01*
X186315050Y-66695000D01*
X185622233Y-66981974D01*
X185091974Y-67512233D01*
X184805000Y-68205050D01*
X184805000Y-68954950D01*
X185091974Y-69647767D01*
X185167207Y-69723000D01*
X176530000Y-69723000D01*
X176481399Y-69732667D01*
X176440197Y-69760197D01*
X176412667Y-69801399D01*
X176403000Y-69850000D01*
X176403000Y-86360000D01*
X176412667Y-86408601D01*
X176440197Y-86449803D01*
X176481399Y-86477333D01*
X176530000Y-86487000D01*
X189790000Y-86487000D01*
X189790001Y-112320000D01*
X144220000Y-112320000D01*
X144220000Y-108845050D01*
X145435000Y-108845050D01*
X145435000Y-109594950D01*
X145721974Y-110287767D01*
X146252233Y-110818026D01*
X146945050Y-111105000D01*
X147694950Y-111105000D01*
X148387767Y-110818026D01*
X148918026Y-110287767D01*
X149205000Y-109594950D01*
X149205000Y-108845050D01*
X184805000Y-108845050D01*
X184805000Y-109594950D01*
X185091974Y-110287767D01*
X185622233Y-110818026D01*
X186315050Y-111105000D01*
X187064950Y-111105000D01*
X187757767Y-110818026D01*
X188288026Y-110287767D01*
X188575000Y-109594950D01*
X188575000Y-108845050D01*
X188288026Y-108152233D01*
X187757767Y-107621974D01*
X187064950Y-107335000D01*
X186315050Y-107335000D01*
X185622233Y-107621974D01*
X185091974Y-108152233D01*
X184805000Y-108845050D01*
X149205000Y-108845050D01*
X148918026Y-108152233D01*
X148387767Y-107621974D01*
X147694950Y-107335000D01*
X146945050Y-107335000D01*
X146252233Y-107621974D01*
X145721974Y-108152233D01*
X145435000Y-108845050D01*
X144220000Y-108845050D01*
X144220000Y-100135750D01*
X153505000Y-100135750D01*
X153505000Y-101726309D01*
X153601673Y-101959698D01*
X153780301Y-102138327D01*
X154013690Y-102235000D01*
X154654250Y-102235000D01*
X154813000Y-102076250D01*
X154813000Y-99977000D01*
X153663750Y-99977000D01*
X153505000Y-100135750D01*
X144220000Y-100135750D01*
X144220000Y-95375750D01*
X153505000Y-95375750D01*
X153505000Y-96966309D01*
X153601673Y-97199698D01*
X153780301Y-97378327D01*
X154001619Y-97470000D01*
X153780301Y-97561673D01*
X153601673Y-97740302D01*
X153505000Y-97973691D01*
X153505000Y-99564250D01*
X153663750Y-99723000D01*
X154813000Y-99723000D01*
X154813000Y-97623750D01*
X154659250Y-97470000D01*
X154813000Y-97316250D01*
X154813000Y-95217000D01*
X153663750Y-95217000D01*
X153505000Y-95375750D01*
X144220000Y-95375750D01*
X144220000Y-93213691D01*
X153505000Y-93213691D01*
X153505000Y-94804250D01*
X153663750Y-94963000D01*
X154813000Y-94963000D01*
X154813000Y-92863750D01*
X155067000Y-92863750D01*
X155067000Y-94963000D01*
X156216250Y-94963000D01*
X156375000Y-94804250D01*
X156375000Y-94293690D01*
X159045000Y-94293690D01*
X159045000Y-94884250D01*
X159203750Y-95043000D01*
X160553000Y-95043000D01*
X160553000Y-93943750D01*
X160394250Y-93785000D01*
X159553691Y-93785000D01*
X159320302Y-93881673D01*
X159141673Y-94060301D01*
X159045000Y-94293690D01*
X156375000Y-94293690D01*
X156375000Y-93213691D01*
X156278327Y-92980302D01*
X156099699Y-92801673D01*
X155866310Y-92705000D01*
X155225750Y-92705000D01*
X155067000Y-92863750D01*
X154813000Y-92863750D01*
X154654250Y-92705000D01*
X154013690Y-92705000D01*
X153780301Y-92801673D01*
X153601673Y-92980302D01*
X153505000Y-93213691D01*
X144220000Y-93213691D01*
X144220000Y-77470000D01*
X149615908Y-77470000D01*
X149731161Y-78049418D01*
X150059375Y-78540625D01*
X150357761Y-78740000D01*
X150059375Y-78939375D01*
X149731161Y-79430582D01*
X149615908Y-80010000D01*
X149731161Y-80589418D01*
X150059375Y-81080625D01*
X150357761Y-81280000D01*
X150059375Y-81479375D01*
X149731161Y-81970582D01*
X149615908Y-82550000D01*
X149731161Y-83129418D01*
X150059375Y-83620625D01*
X150550582Y-83948839D01*
X150983744Y-84035000D01*
X151276256Y-84035000D01*
X151709418Y-83948839D01*
X152200625Y-83620625D01*
X152408178Y-83310000D01*
X154865153Y-83310000D01*
X154940000Y-83324888D01*
X155014847Y-83310000D01*
X155014852Y-83310000D01*
X155236537Y-83265904D01*
X155487929Y-83097929D01*
X155530331Y-83034470D01*
X157170782Y-81394020D01*
X157202119Y-81407000D01*
X157757881Y-81407000D01*
X158271337Y-81194320D01*
X158664320Y-80801337D01*
X158750000Y-80594487D01*
X158835680Y-80801337D01*
X159228663Y-81194320D01*
X159742119Y-81407000D01*
X160297881Y-81407000D01*
X160811337Y-81194320D01*
X161204320Y-80801337D01*
X161217300Y-80770000D01*
X163515199Y-80770000D01*
X164928791Y-82183593D01*
X164855908Y-82550000D01*
X164971161Y-83129418D01*
X165299375Y-83620625D01*
X165790582Y-83948839D01*
X166223744Y-84035000D01*
X166516256Y-84035000D01*
X166949418Y-83948839D01*
X167440625Y-83620625D01*
X167768839Y-83129418D01*
X167884092Y-82550000D01*
X167768839Y-81970582D01*
X167440625Y-81479375D01*
X167142239Y-81280000D01*
X167440625Y-81080625D01*
X167768839Y-80589418D01*
X167884092Y-80010000D01*
X167768839Y-79430582D01*
X167440625Y-78939375D01*
X167142239Y-78740000D01*
X167440625Y-78540625D01*
X167768839Y-78049418D01*
X167884092Y-77470000D01*
X167768839Y-76890582D01*
X167440625Y-76399375D01*
X167422381Y-76387184D01*
X167467765Y-76378157D01*
X167677809Y-76237809D01*
X167718170Y-76177405D01*
X168021000Y-76480236D01*
X168021001Y-83451763D01*
X167073296Y-84399469D01*
X167073293Y-84399471D01*
X165473777Y-85998988D01*
X162248243Y-85998988D01*
X162160688Y-85981572D01*
X162073133Y-85998988D01*
X161813819Y-86050569D01*
X161519756Y-86247055D01*
X161470159Y-86321282D01*
X161211732Y-86579710D01*
X160791432Y-86159410D01*
X160207958Y-85917728D01*
X159576412Y-85917728D01*
X158992938Y-86159410D01*
X158546367Y-86605981D01*
X158304685Y-87189455D01*
X158304685Y-87821001D01*
X158546367Y-88404475D01*
X158942892Y-88801000D01*
X158837556Y-88801000D01*
X158750000Y-88783584D01*
X158662444Y-88801000D01*
X156387440Y-88801000D01*
X156387440Y-87940000D01*
X156338157Y-87692235D01*
X156197809Y-87482191D01*
X155987765Y-87341843D01*
X155740000Y-87292560D01*
X154140000Y-87292560D01*
X153892235Y-87341843D01*
X153682191Y-87482191D01*
X153541843Y-87692235D01*
X153492560Y-87940000D01*
X153492560Y-91440000D01*
X153541843Y-91687765D01*
X153682191Y-91897809D01*
X153892235Y-92038157D01*
X154140000Y-92087440D01*
X155740000Y-92087440D01*
X155987765Y-92038157D01*
X156197809Y-91897809D01*
X156338157Y-91687765D01*
X156387440Y-91440000D01*
X156387440Y-90579000D01*
X158316765Y-90579000D01*
X160362560Y-92624796D01*
X160362560Y-92765000D01*
X160411843Y-93012765D01*
X160552191Y-93222809D01*
X160715276Y-93331780D01*
X160721000Y-93360555D01*
X160772581Y-93619869D01*
X160916095Y-93834655D01*
X160807000Y-93943750D01*
X160807000Y-95043000D01*
X160827000Y-95043000D01*
X160827000Y-95297000D01*
X160807000Y-95297000D01*
X160807000Y-95317000D01*
X160553000Y-95317000D01*
X160553000Y-95297000D01*
X159203750Y-95297000D01*
X159045000Y-95455750D01*
X159045000Y-96046310D01*
X159141673Y-96279699D01*
X159182927Y-96320953D01*
X159081843Y-96472235D01*
X159067500Y-96544343D01*
X159067500Y-96204227D01*
X158825818Y-95620753D01*
X158379247Y-95174182D01*
X157795773Y-94932500D01*
X157164227Y-94932500D01*
X156580753Y-95174182D01*
X156375000Y-95379935D01*
X156375000Y-95375750D01*
X156216250Y-95217000D01*
X155067000Y-95217000D01*
X155067000Y-97316250D01*
X155220750Y-97470000D01*
X155067000Y-97623750D01*
X155067000Y-99723000D01*
X156216250Y-99723000D01*
X156375000Y-99564250D01*
X156375000Y-97973691D01*
X156278327Y-97740302D01*
X156099699Y-97561673D01*
X155878381Y-97470000D01*
X156099699Y-97378327D01*
X156112097Y-97365929D01*
X156134182Y-97419247D01*
X156580753Y-97865818D01*
X156591001Y-97870063D01*
X156591001Y-97990441D01*
X156573584Y-98078000D01*
X156632177Y-98372560D01*
X156642582Y-98424870D01*
X156839068Y-98718933D01*
X156913294Y-98768529D01*
X158063764Y-99919000D01*
X156375000Y-101607765D01*
X156375000Y-100135750D01*
X156216250Y-99977000D01*
X155067000Y-99977000D01*
X155067000Y-102076250D01*
X155225750Y-102235000D01*
X155747765Y-102235000D01*
X155130205Y-102852560D01*
X154140000Y-102852560D01*
X153892235Y-102901843D01*
X153682191Y-103042191D01*
X153541843Y-103252235D01*
X153492560Y-103500000D01*
X153492560Y-107000000D01*
X153541843Y-107247765D01*
X153682191Y-107457809D01*
X153892235Y-107598157D01*
X154140000Y-107647440D01*
X155740000Y-107647440D01*
X155987765Y-107598157D01*
X156197809Y-107457809D01*
X156338157Y-107247765D01*
X156387440Y-107000000D01*
X156387440Y-104109795D01*
X159400370Y-101096866D01*
X159432235Y-101118157D01*
X159680000Y-101167440D01*
X160721001Y-101167440D01*
X160721001Y-101604395D01*
X160552191Y-101717191D01*
X160411843Y-101927235D01*
X160362560Y-102175000D01*
X160362560Y-102925000D01*
X160411843Y-103172765D01*
X160552191Y-103382809D01*
X160762235Y-103523157D01*
X161010000Y-103572440D01*
X162210000Y-103572440D01*
X162457765Y-103523157D01*
X162549102Y-103462127D01*
X162550302Y-103463327D01*
X162783691Y-103560000D01*
X163224250Y-103560000D01*
X163383000Y-103401250D01*
X163383000Y-102677000D01*
X163637000Y-102677000D01*
X163637000Y-103401250D01*
X163795750Y-103560000D01*
X164236309Y-103560000D01*
X164469698Y-103463327D01*
X164648327Y-103284699D01*
X164745000Y-103051310D01*
X164745000Y-102835750D01*
X164586250Y-102677000D01*
X163637000Y-102677000D01*
X163383000Y-102677000D01*
X163363000Y-102677000D01*
X163363000Y-102423000D01*
X163383000Y-102423000D01*
X163383000Y-101698750D01*
X163637000Y-101698750D01*
X163637000Y-102423000D01*
X164586250Y-102423000D01*
X164745000Y-102264250D01*
X164745000Y-102048690D01*
X164648327Y-101815301D01*
X164469698Y-101636673D01*
X164236309Y-101540000D01*
X163795750Y-101540000D01*
X163637000Y-101698750D01*
X163383000Y-101698750D01*
X163224250Y-101540000D01*
X162783691Y-101540000D01*
X162550302Y-101636673D01*
X162549102Y-101637873D01*
X162499000Y-101604396D01*
X162499000Y-100787556D01*
X162516416Y-100700000D01*
X162447419Y-100353129D01*
X162327440Y-100173568D01*
X162327440Y-99020000D01*
X162278157Y-98772235D01*
X162176436Y-98620000D01*
X162278157Y-98467765D01*
X162300790Y-98353981D01*
X162534870Y-98307419D01*
X162828933Y-98110933D01*
X162878531Y-98036704D01*
X162900705Y-98014530D01*
X162974934Y-97964932D01*
X163171420Y-97670869D01*
X163223001Y-97411555D01*
X163223001Y-97411554D01*
X163240417Y-97323999D01*
X163223001Y-97236443D01*
X163223001Y-95570000D01*
X165332560Y-95570000D01*
X165332560Y-99370000D01*
X165381843Y-99617765D01*
X165522191Y-99827809D01*
X165732235Y-99968157D01*
X165980000Y-100017440D01*
X167980000Y-100017440D01*
X168227765Y-99968157D01*
X168437809Y-99827809D01*
X168578157Y-99617765D01*
X168627440Y-99370000D01*
X168627440Y-95570000D01*
X168578157Y-95322235D01*
X168437809Y-95112191D01*
X168227765Y-94971843D01*
X167980000Y-94922560D01*
X165980000Y-94922560D01*
X165732235Y-94971843D01*
X165522191Y-95112191D01*
X165381843Y-95322235D01*
X165332560Y-95570000D01*
X163223001Y-95570000D01*
X163223001Y-94084555D01*
X163240417Y-93997000D01*
X163198247Y-93785000D01*
X163171420Y-93650131D01*
X163004288Y-93400000D01*
X163224250Y-93400000D01*
X163383000Y-93241250D01*
X163383000Y-92517000D01*
X163637000Y-92517000D01*
X163637000Y-93241250D01*
X163795750Y-93400000D01*
X164236309Y-93400000D01*
X164469698Y-93303327D01*
X164648327Y-93124699D01*
X164745000Y-92891310D01*
X164745000Y-92675750D01*
X164586250Y-92517000D01*
X163637000Y-92517000D01*
X163383000Y-92517000D01*
X163363000Y-92517000D01*
X163363000Y-92263000D01*
X163383000Y-92263000D01*
X163383000Y-91538750D01*
X163637000Y-91538750D01*
X163637000Y-92263000D01*
X164586250Y-92263000D01*
X164745000Y-92104250D01*
X164745000Y-91888690D01*
X164648327Y-91655301D01*
X164469698Y-91476673D01*
X164236309Y-91380000D01*
X163795750Y-91380000D01*
X163637000Y-91538750D01*
X163383000Y-91538750D01*
X163224250Y-91380000D01*
X162783691Y-91380000D01*
X162550302Y-91476673D01*
X162549102Y-91477873D01*
X162457765Y-91416843D01*
X162210000Y-91367560D01*
X161619796Y-91367560D01*
X160819011Y-90566776D01*
X161016870Y-90527419D01*
X161310933Y-90330933D01*
X161360531Y-90256704D01*
X161619795Y-89997440D01*
X162060000Y-89997440D01*
X162307765Y-89948157D01*
X162517809Y-89807809D01*
X162560000Y-89744666D01*
X162602191Y-89807809D01*
X162812235Y-89948157D01*
X163060000Y-89997440D01*
X164260000Y-89997440D01*
X164507765Y-89948157D01*
X164717809Y-89807809D01*
X164816573Y-89660000D01*
X165383427Y-89660000D01*
X165482191Y-89807809D01*
X165692235Y-89948157D01*
X165940000Y-89997440D01*
X167140000Y-89997440D01*
X167387765Y-89948157D01*
X167597809Y-89807809D01*
X167638654Y-89746680D01*
X167780302Y-89888327D01*
X168013691Y-89985000D01*
X168454250Y-89985000D01*
X168613000Y-89826250D01*
X168613000Y-89027000D01*
X168867000Y-89027000D01*
X168867000Y-89826250D01*
X169025750Y-89985000D01*
X169466309Y-89985000D01*
X169699698Y-89888327D01*
X169878327Y-89709699D01*
X169975000Y-89476310D01*
X169975000Y-89185750D01*
X169816250Y-89027000D01*
X168867000Y-89027000D01*
X168613000Y-89027000D01*
X168593000Y-89027000D01*
X168593000Y-88773000D01*
X168613000Y-88773000D01*
X168613000Y-87973750D01*
X168867000Y-87973750D01*
X168867000Y-88773000D01*
X169816250Y-88773000D01*
X169975000Y-88614250D01*
X169975000Y-88323690D01*
X169878327Y-88090301D01*
X169699698Y-87911673D01*
X169466309Y-87815000D01*
X169025750Y-87815000D01*
X168867000Y-87973750D01*
X168613000Y-87973750D01*
X168454250Y-87815000D01*
X168013691Y-87815000D01*
X167780302Y-87911673D01*
X167638654Y-88053320D01*
X167597809Y-87992191D01*
X167406797Y-87864560D01*
X170384718Y-84886639D01*
X170458944Y-84837043D01*
X170655430Y-84542980D01*
X170707011Y-84283666D01*
X170707011Y-84283665D01*
X170724427Y-84196110D01*
X170707011Y-84108555D01*
X170707011Y-75823444D01*
X170724427Y-75735889D01*
X170691615Y-75570933D01*
X170655430Y-75389020D01*
X170458944Y-75094957D01*
X170384718Y-75045361D01*
X167162652Y-71823296D01*
X167113054Y-71749067D01*
X166818991Y-71552581D01*
X166559677Y-71501000D01*
X166559676Y-71501000D01*
X166472121Y-71483584D01*
X166384566Y-71501000D01*
X161106657Y-71501000D01*
X160811337Y-71205680D01*
X160297881Y-70993000D01*
X159742119Y-70993000D01*
X159228663Y-71205680D01*
X158877000Y-71557343D01*
X158877000Y-71501690D01*
X158780327Y-71268301D01*
X158601698Y-71089673D01*
X158368309Y-70993000D01*
X157765750Y-70993000D01*
X157607000Y-71151750D01*
X157607000Y-72263000D01*
X157627000Y-72263000D01*
X157627000Y-72517000D01*
X157607000Y-72517000D01*
X157607000Y-72537000D01*
X157353000Y-72537000D01*
X157353000Y-72517000D01*
X156241750Y-72517000D01*
X156083000Y-72675750D01*
X156083000Y-73278310D01*
X156179673Y-73511699D01*
X156358302Y-73690327D01*
X156591691Y-73787000D01*
X156647343Y-73787000D01*
X156295680Y-74138663D01*
X156083000Y-74652119D01*
X156083000Y-75207881D01*
X156095980Y-75239218D01*
X154625199Y-76710000D01*
X152408178Y-76710000D01*
X152200625Y-76399375D01*
X152178967Y-76384904D01*
X152339698Y-76318327D01*
X152518327Y-76139699D01*
X152615000Y-75906310D01*
X152615000Y-75215750D01*
X152456250Y-75057000D01*
X151257000Y-75057000D01*
X151257000Y-75077000D01*
X151003000Y-75077000D01*
X151003000Y-75057000D01*
X149803750Y-75057000D01*
X149645000Y-75215750D01*
X149645000Y-75906310D01*
X149741673Y-76139699D01*
X149920302Y-76318327D01*
X150081033Y-76384904D01*
X150059375Y-76399375D01*
X149731161Y-76890582D01*
X149615908Y-77470000D01*
X144220000Y-77470000D01*
X144220000Y-73953690D01*
X149645000Y-73953690D01*
X149645000Y-74644250D01*
X149803750Y-74803000D01*
X151003000Y-74803000D01*
X151003000Y-73603750D01*
X151257000Y-73603750D01*
X151257000Y-74803000D01*
X152456250Y-74803000D01*
X152615000Y-74644250D01*
X152615000Y-73953690D01*
X152518327Y-73720301D01*
X152339698Y-73541673D01*
X152106309Y-73445000D01*
X151415750Y-73445000D01*
X151257000Y-73603750D01*
X151003000Y-73603750D01*
X150844250Y-73445000D01*
X150153691Y-73445000D01*
X149920302Y-73541673D01*
X149741673Y-73720301D01*
X149645000Y-73953690D01*
X144220000Y-73953690D01*
X144220000Y-71501690D01*
X156083000Y-71501690D01*
X156083000Y-72104250D01*
X156241750Y-72263000D01*
X157353000Y-72263000D01*
X157353000Y-71151750D01*
X157194250Y-70993000D01*
X156591691Y-70993000D01*
X156358302Y-71089673D01*
X156179673Y-71268301D01*
X156083000Y-71501690D01*
X144220000Y-71501690D01*
X144220000Y-68205050D01*
X145435000Y-68205050D01*
X145435000Y-68954950D01*
X145721974Y-69647767D01*
X146252233Y-70178026D01*
X146945050Y-70465000D01*
X147694950Y-70465000D01*
X148387767Y-70178026D01*
X148918026Y-69647767D01*
X149205000Y-68954950D01*
X149205000Y-68205050D01*
X148918026Y-67512233D01*
X148387767Y-66981974D01*
X147694950Y-66695000D01*
X146945050Y-66695000D01*
X146252233Y-66981974D01*
X145721974Y-67512233D01*
X145435000Y-68205050D01*
X144220000Y-68205050D01*
X144220000Y-65480000D01*
X189790000Y-65480000D01*
X189790000Y-69723000D01*
X189790000Y-69723000D01*
G37*
X189790000Y-69723000D02*
X188212793Y-69723000D01*
X188288026Y-69647767D01*
X188575000Y-68954950D01*
X188575000Y-68205050D01*
X188288026Y-67512233D01*
X187757767Y-66981974D01*
X187064950Y-66695000D01*
X186315050Y-66695000D01*
X185622233Y-66981974D01*
X185091974Y-67512233D01*
X184805000Y-68205050D01*
X184805000Y-68954950D01*
X185091974Y-69647767D01*
X185167207Y-69723000D01*
X176530000Y-69723000D01*
X176481399Y-69732667D01*
X176440197Y-69760197D01*
X176412667Y-69801399D01*
X176403000Y-69850000D01*
X176403000Y-86360000D01*
X176412667Y-86408601D01*
X176440197Y-86449803D01*
X176481399Y-86477333D01*
X176530000Y-86487000D01*
X189790000Y-86487000D01*
X189790001Y-112320000D01*
X144220000Y-112320000D01*
X144220000Y-108845050D01*
X145435000Y-108845050D01*
X145435000Y-109594950D01*
X145721974Y-110287767D01*
X146252233Y-110818026D01*
X146945050Y-111105000D01*
X147694950Y-111105000D01*
X148387767Y-110818026D01*
X148918026Y-110287767D01*
X149205000Y-109594950D01*
X149205000Y-108845050D01*
X184805000Y-108845050D01*
X184805000Y-109594950D01*
X185091974Y-110287767D01*
X185622233Y-110818026D01*
X186315050Y-111105000D01*
X187064950Y-111105000D01*
X187757767Y-110818026D01*
X188288026Y-110287767D01*
X188575000Y-109594950D01*
X188575000Y-108845050D01*
X188288026Y-108152233D01*
X187757767Y-107621974D01*
X187064950Y-107335000D01*
X186315050Y-107335000D01*
X185622233Y-107621974D01*
X185091974Y-108152233D01*
X184805000Y-108845050D01*
X149205000Y-108845050D01*
X148918026Y-108152233D01*
X148387767Y-107621974D01*
X147694950Y-107335000D01*
X146945050Y-107335000D01*
X146252233Y-107621974D01*
X145721974Y-108152233D01*
X145435000Y-108845050D01*
X144220000Y-108845050D01*
X144220000Y-100135750D01*
X153505000Y-100135750D01*
X153505000Y-101726309D01*
X153601673Y-101959698D01*
X153780301Y-102138327D01*
X154013690Y-102235000D01*
X154654250Y-102235000D01*
X154813000Y-102076250D01*
X154813000Y-99977000D01*
X153663750Y-99977000D01*
X153505000Y-100135750D01*
X144220000Y-100135750D01*
X144220000Y-95375750D01*
X153505000Y-95375750D01*
X153505000Y-96966309D01*
X153601673Y-97199698D01*
X153780301Y-97378327D01*
X154001619Y-97470000D01*
X153780301Y-97561673D01*
X153601673Y-97740302D01*
X153505000Y-97973691D01*
X153505000Y-99564250D01*
X153663750Y-99723000D01*
X154813000Y-99723000D01*
X154813000Y-97623750D01*
X154659250Y-97470000D01*
X154813000Y-97316250D01*
X154813000Y-95217000D01*
X153663750Y-95217000D01*
X153505000Y-95375750D01*
X144220000Y-95375750D01*
X144220000Y-93213691D01*
X153505000Y-93213691D01*
X153505000Y-94804250D01*
X153663750Y-94963000D01*
X154813000Y-94963000D01*
X154813000Y-92863750D01*
X155067000Y-92863750D01*
X155067000Y-94963000D01*
X156216250Y-94963000D01*
X156375000Y-94804250D01*
X156375000Y-94293690D01*
X159045000Y-94293690D01*
X159045000Y-94884250D01*
X159203750Y-95043000D01*
X160553000Y-95043000D01*
X160553000Y-93943750D01*
X160394250Y-93785000D01*
X159553691Y-93785000D01*
X159320302Y-93881673D01*
X159141673Y-94060301D01*
X159045000Y-94293690D01*
X156375000Y-94293690D01*
X156375000Y-93213691D01*
X156278327Y-92980302D01*
X156099699Y-92801673D01*
X155866310Y-92705000D01*
X155225750Y-92705000D01*
X155067000Y-92863750D01*
X154813000Y-92863750D01*
X154654250Y-92705000D01*
X154013690Y-92705000D01*
X153780301Y-92801673D01*
X153601673Y-92980302D01*
X153505000Y-93213691D01*
X144220000Y-93213691D01*
X144220000Y-77470000D01*
X149615908Y-77470000D01*
X149731161Y-78049418D01*
X150059375Y-78540625D01*
X150357761Y-78740000D01*
X150059375Y-78939375D01*
X149731161Y-79430582D01*
X149615908Y-80010000D01*
X149731161Y-80589418D01*
X150059375Y-81080625D01*
X150357761Y-81280000D01*
X150059375Y-81479375D01*
X149731161Y-81970582D01*
X149615908Y-82550000D01*
X149731161Y-83129418D01*
X150059375Y-83620625D01*
X150550582Y-83948839D01*
X150983744Y-84035000D01*
X151276256Y-84035000D01*
X151709418Y-83948839D01*
X152200625Y-83620625D01*
X152408178Y-83310000D01*
X154865153Y-83310000D01*
X154940000Y-83324888D01*
X155014847Y-83310000D01*
X155014852Y-83310000D01*
X155236537Y-83265904D01*
X155487929Y-83097929D01*
X155530331Y-83034470D01*
X157170782Y-81394020D01*
X157202119Y-81407000D01*
X157757881Y-81407000D01*
X158271337Y-81194320D01*
X158664320Y-80801337D01*
X158750000Y-80594487D01*
X158835680Y-80801337D01*
X159228663Y-81194320D01*
X159742119Y-81407000D01*
X160297881Y-81407000D01*
X160811337Y-81194320D01*
X161204320Y-80801337D01*
X161217300Y-80770000D01*
X163515199Y-80770000D01*
X164928791Y-82183593D01*
X164855908Y-82550000D01*
X164971161Y-83129418D01*
X165299375Y-83620625D01*
X165790582Y-83948839D01*
X166223744Y-84035000D01*
X166516256Y-84035000D01*
X166949418Y-83948839D01*
X167440625Y-83620625D01*
X167768839Y-83129418D01*
X167884092Y-82550000D01*
X167768839Y-81970582D01*
X167440625Y-81479375D01*
X167142239Y-81280000D01*
X167440625Y-81080625D01*
X167768839Y-80589418D01*
X167884092Y-80010000D01*
X167768839Y-79430582D01*
X167440625Y-78939375D01*
X167142239Y-78740000D01*
X167440625Y-78540625D01*
X167768839Y-78049418D01*
X167884092Y-77470000D01*
X167768839Y-76890582D01*
X167440625Y-76399375D01*
X167422381Y-76387184D01*
X167467765Y-76378157D01*
X167677809Y-76237809D01*
X167718170Y-76177405D01*
X168021000Y-76480236D01*
X168021001Y-83451763D01*
X167073296Y-84399469D01*
X167073293Y-84399471D01*
X165473777Y-85998988D01*
X162248243Y-85998988D01*
X162160688Y-85981572D01*
X162073133Y-85998988D01*
X161813819Y-86050569D01*
X161519756Y-86247055D01*
X161470159Y-86321282D01*
X161211732Y-86579710D01*
X160791432Y-86159410D01*
X160207958Y-85917728D01*
X159576412Y-85917728D01*
X158992938Y-86159410D01*
X158546367Y-86605981D01*
X158304685Y-87189455D01*
X158304685Y-87821001D01*
X158546367Y-88404475D01*
X158942892Y-88801000D01*
X158837556Y-88801000D01*
X158750000Y-88783584D01*
X158662444Y-88801000D01*
X156387440Y-88801000D01*
X156387440Y-87940000D01*
X156338157Y-87692235D01*
X156197809Y-87482191D01*
X155987765Y-87341843D01*
X155740000Y-87292560D01*
X154140000Y-87292560D01*
X153892235Y-87341843D01*
X153682191Y-87482191D01*
X153541843Y-87692235D01*
X153492560Y-87940000D01*
X153492560Y-91440000D01*
X153541843Y-91687765D01*
X153682191Y-91897809D01*
X153892235Y-92038157D01*
X154140000Y-92087440D01*
X155740000Y-92087440D01*
X155987765Y-92038157D01*
X156197809Y-91897809D01*
X156338157Y-91687765D01*
X156387440Y-91440000D01*
X156387440Y-90579000D01*
X158316765Y-90579000D01*
X160362560Y-92624796D01*
X160362560Y-92765000D01*
X160411843Y-93012765D01*
X160552191Y-93222809D01*
X160715276Y-93331780D01*
X160721000Y-93360555D01*
X160772581Y-93619869D01*
X160916095Y-93834655D01*
X160807000Y-93943750D01*
X160807000Y-95043000D01*
X160827000Y-95043000D01*
X160827000Y-95297000D01*
X160807000Y-95297000D01*
X160807000Y-95317000D01*
X160553000Y-95317000D01*
X160553000Y-95297000D01*
X159203750Y-95297000D01*
X159045000Y-95455750D01*
X159045000Y-96046310D01*
X159141673Y-96279699D01*
X159182927Y-96320953D01*
X159081843Y-96472235D01*
X159067500Y-96544343D01*
X159067500Y-96204227D01*
X158825818Y-95620753D01*
X158379247Y-95174182D01*
X157795773Y-94932500D01*
X157164227Y-94932500D01*
X156580753Y-95174182D01*
X156375000Y-95379935D01*
X156375000Y-95375750D01*
X156216250Y-95217000D01*
X155067000Y-95217000D01*
X155067000Y-97316250D01*
X155220750Y-97470000D01*
X155067000Y-97623750D01*
X155067000Y-99723000D01*
X156216250Y-99723000D01*
X156375000Y-99564250D01*
X156375000Y-97973691D01*
X156278327Y-97740302D01*
X156099699Y-97561673D01*
X155878381Y-97470000D01*
X156099699Y-97378327D01*
X156112097Y-97365929D01*
X156134182Y-97419247D01*
X156580753Y-97865818D01*
X156591001Y-97870063D01*
X156591001Y-97990441D01*
X156573584Y-98078000D01*
X156632177Y-98372560D01*
X156642582Y-98424870D01*
X156839068Y-98718933D01*
X156913294Y-98768529D01*
X158063764Y-99919000D01*
X156375000Y-101607765D01*
X156375000Y-100135750D01*
X156216250Y-99977000D01*
X155067000Y-99977000D01*
X155067000Y-102076250D01*
X155225750Y-102235000D01*
X155747765Y-102235000D01*
X155130205Y-102852560D01*
X154140000Y-102852560D01*
X153892235Y-102901843D01*
X153682191Y-103042191D01*
X153541843Y-103252235D01*
X153492560Y-103500000D01*
X153492560Y-107000000D01*
X153541843Y-107247765D01*
X153682191Y-107457809D01*
X153892235Y-107598157D01*
X154140000Y-107647440D01*
X155740000Y-107647440D01*
X155987765Y-107598157D01*
X156197809Y-107457809D01*
X156338157Y-107247765D01*
X156387440Y-107000000D01*
X156387440Y-104109795D01*
X159400370Y-101096866D01*
X159432235Y-101118157D01*
X159680000Y-101167440D01*
X160721001Y-101167440D01*
X160721001Y-101604395D01*
X160552191Y-101717191D01*
X160411843Y-101927235D01*
X160362560Y-102175000D01*
X160362560Y-102925000D01*
X160411843Y-103172765D01*
X160552191Y-103382809D01*
X160762235Y-103523157D01*
X161010000Y-103572440D01*
X162210000Y-103572440D01*
X162457765Y-103523157D01*
X162549102Y-103462127D01*
X162550302Y-103463327D01*
X162783691Y-103560000D01*
X163224250Y-103560000D01*
X163383000Y-103401250D01*
X163383000Y-102677000D01*
X163637000Y-102677000D01*
X163637000Y-103401250D01*
X163795750Y-103560000D01*
X164236309Y-103560000D01*
X164469698Y-103463327D01*
X164648327Y-103284699D01*
X164745000Y-103051310D01*
X164745000Y-102835750D01*
X164586250Y-102677000D01*
X163637000Y-102677000D01*
X163383000Y-102677000D01*
X163363000Y-102677000D01*
X163363000Y-102423000D01*
X163383000Y-102423000D01*
X163383000Y-101698750D01*
X163637000Y-101698750D01*
X163637000Y-102423000D01*
X164586250Y-102423000D01*
X164745000Y-102264250D01*
X164745000Y-102048690D01*
X164648327Y-101815301D01*
X164469698Y-101636673D01*
X164236309Y-101540000D01*
X163795750Y-101540000D01*
X163637000Y-101698750D01*
X163383000Y-101698750D01*
X163224250Y-101540000D01*
X162783691Y-101540000D01*
X162550302Y-101636673D01*
X162549102Y-101637873D01*
X162499000Y-101604396D01*
X162499000Y-100787556D01*
X162516416Y-100700000D01*
X162447419Y-100353129D01*
X162327440Y-100173568D01*
X162327440Y-99020000D01*
X162278157Y-98772235D01*
X162176436Y-98620000D01*
X162278157Y-98467765D01*
X162300790Y-98353981D01*
X162534870Y-98307419D01*
X162828933Y-98110933D01*
X162878531Y-98036704D01*
X162900705Y-98014530D01*
X162974934Y-97964932D01*
X163171420Y-97670869D01*
X163223001Y-97411555D01*
X163223001Y-97411554D01*
X163240417Y-97323999D01*
X163223001Y-97236443D01*
X163223001Y-95570000D01*
X165332560Y-95570000D01*
X165332560Y-99370000D01*
X165381843Y-99617765D01*
X165522191Y-99827809D01*
X165732235Y-99968157D01*
X165980000Y-100017440D01*
X167980000Y-100017440D01*
X168227765Y-99968157D01*
X168437809Y-99827809D01*
X168578157Y-99617765D01*
X168627440Y-99370000D01*
X168627440Y-95570000D01*
X168578157Y-95322235D01*
X168437809Y-95112191D01*
X168227765Y-94971843D01*
X167980000Y-94922560D01*
X165980000Y-94922560D01*
X165732235Y-94971843D01*
X165522191Y-95112191D01*
X165381843Y-95322235D01*
X165332560Y-95570000D01*
X163223001Y-95570000D01*
X163223001Y-94084555D01*
X163240417Y-93997000D01*
X163198247Y-93785000D01*
X163171420Y-93650131D01*
X163004288Y-93400000D01*
X163224250Y-93400000D01*
X163383000Y-93241250D01*
X163383000Y-92517000D01*
X163637000Y-92517000D01*
X163637000Y-93241250D01*
X163795750Y-93400000D01*
X164236309Y-93400000D01*
X164469698Y-93303327D01*
X164648327Y-93124699D01*
X164745000Y-92891310D01*
X164745000Y-92675750D01*
X164586250Y-92517000D01*
X163637000Y-92517000D01*
X163383000Y-92517000D01*
X163363000Y-92517000D01*
X163363000Y-92263000D01*
X163383000Y-92263000D01*
X163383000Y-91538750D01*
X163637000Y-91538750D01*
X163637000Y-92263000D01*
X164586250Y-92263000D01*
X164745000Y-92104250D01*
X164745000Y-91888690D01*
X164648327Y-91655301D01*
X164469698Y-91476673D01*
X164236309Y-91380000D01*
X163795750Y-91380000D01*
X163637000Y-91538750D01*
X163383000Y-91538750D01*
X163224250Y-91380000D01*
X162783691Y-91380000D01*
X162550302Y-91476673D01*
X162549102Y-91477873D01*
X162457765Y-91416843D01*
X162210000Y-91367560D01*
X161619796Y-91367560D01*
X160819011Y-90566776D01*
X161016870Y-90527419D01*
X161310933Y-90330933D01*
X161360531Y-90256704D01*
X161619795Y-89997440D01*
X162060000Y-89997440D01*
X162307765Y-89948157D01*
X162517809Y-89807809D01*
X162560000Y-89744666D01*
X162602191Y-89807809D01*
X162812235Y-89948157D01*
X163060000Y-89997440D01*
X164260000Y-89997440D01*
X164507765Y-89948157D01*
X164717809Y-89807809D01*
X164816573Y-89660000D01*
X165383427Y-89660000D01*
X165482191Y-89807809D01*
X165692235Y-89948157D01*
X165940000Y-89997440D01*
X167140000Y-89997440D01*
X167387765Y-89948157D01*
X167597809Y-89807809D01*
X167638654Y-89746680D01*
X167780302Y-89888327D01*
X168013691Y-89985000D01*
X168454250Y-89985000D01*
X168613000Y-89826250D01*
X168613000Y-89027000D01*
X168867000Y-89027000D01*
X168867000Y-89826250D01*
X169025750Y-89985000D01*
X169466309Y-89985000D01*
X169699698Y-89888327D01*
X169878327Y-89709699D01*
X169975000Y-89476310D01*
X169975000Y-89185750D01*
X169816250Y-89027000D01*
X168867000Y-89027000D01*
X168613000Y-89027000D01*
X168593000Y-89027000D01*
X168593000Y-88773000D01*
X168613000Y-88773000D01*
X168613000Y-87973750D01*
X168867000Y-87973750D01*
X168867000Y-88773000D01*
X169816250Y-88773000D01*
X169975000Y-88614250D01*
X169975000Y-88323690D01*
X169878327Y-88090301D01*
X169699698Y-87911673D01*
X169466309Y-87815000D01*
X169025750Y-87815000D01*
X168867000Y-87973750D01*
X168613000Y-87973750D01*
X168454250Y-87815000D01*
X168013691Y-87815000D01*
X167780302Y-87911673D01*
X167638654Y-88053320D01*
X167597809Y-87992191D01*
X167406797Y-87864560D01*
X170384718Y-84886639D01*
X170458944Y-84837043D01*
X170655430Y-84542980D01*
X170707011Y-84283666D01*
X170707011Y-84283665D01*
X170724427Y-84196110D01*
X170707011Y-84108555D01*
X170707011Y-75823444D01*
X170724427Y-75735889D01*
X170691615Y-75570933D01*
X170655430Y-75389020D01*
X170458944Y-75094957D01*
X170384718Y-75045361D01*
X167162652Y-71823296D01*
X167113054Y-71749067D01*
X166818991Y-71552581D01*
X166559677Y-71501000D01*
X166559676Y-71501000D01*
X166472121Y-71483584D01*
X166384566Y-71501000D01*
X161106657Y-71501000D01*
X160811337Y-71205680D01*
X160297881Y-70993000D01*
X159742119Y-70993000D01*
X159228663Y-71205680D01*
X158877000Y-71557343D01*
X158877000Y-71501690D01*
X158780327Y-71268301D01*
X158601698Y-71089673D01*
X158368309Y-70993000D01*
X157765750Y-70993000D01*
X157607000Y-71151750D01*
X157607000Y-72263000D01*
X157627000Y-72263000D01*
X157627000Y-72517000D01*
X157607000Y-72517000D01*
X157607000Y-72537000D01*
X157353000Y-72537000D01*
X157353000Y-72517000D01*
X156241750Y-72517000D01*
X156083000Y-72675750D01*
X156083000Y-73278310D01*
X156179673Y-73511699D01*
X156358302Y-73690327D01*
X156591691Y-73787000D01*
X156647343Y-73787000D01*
X156295680Y-74138663D01*
X156083000Y-74652119D01*
X156083000Y-75207881D01*
X156095980Y-75239218D01*
X154625199Y-76710000D01*
X152408178Y-76710000D01*
X152200625Y-76399375D01*
X152178967Y-76384904D01*
X152339698Y-76318327D01*
X152518327Y-76139699D01*
X152615000Y-75906310D01*
X152615000Y-75215750D01*
X152456250Y-75057000D01*
X151257000Y-75057000D01*
X151257000Y-75077000D01*
X151003000Y-75077000D01*
X151003000Y-75057000D01*
X149803750Y-75057000D01*
X149645000Y-75215750D01*
X149645000Y-75906310D01*
X149741673Y-76139699D01*
X149920302Y-76318327D01*
X150081033Y-76384904D01*
X150059375Y-76399375D01*
X149731161Y-76890582D01*
X149615908Y-77470000D01*
X144220000Y-77470000D01*
X144220000Y-73953690D01*
X149645000Y-73953690D01*
X149645000Y-74644250D01*
X149803750Y-74803000D01*
X151003000Y-74803000D01*
X151003000Y-73603750D01*
X151257000Y-73603750D01*
X151257000Y-74803000D01*
X152456250Y-74803000D01*
X152615000Y-74644250D01*
X152615000Y-73953690D01*
X152518327Y-73720301D01*
X152339698Y-73541673D01*
X152106309Y-73445000D01*
X151415750Y-73445000D01*
X151257000Y-73603750D01*
X151003000Y-73603750D01*
X150844250Y-73445000D01*
X150153691Y-73445000D01*
X149920302Y-73541673D01*
X149741673Y-73720301D01*
X149645000Y-73953690D01*
X144220000Y-73953690D01*
X144220000Y-71501690D01*
X156083000Y-71501690D01*
X156083000Y-72104250D01*
X156241750Y-72263000D01*
X157353000Y-72263000D01*
X157353000Y-71151750D01*
X157194250Y-70993000D01*
X156591691Y-70993000D01*
X156358302Y-71089673D01*
X156179673Y-71268301D01*
X156083000Y-71501690D01*
X144220000Y-71501690D01*
X144220000Y-68205050D01*
X145435000Y-68205050D01*
X145435000Y-68954950D01*
X145721974Y-69647767D01*
X146252233Y-70178026D01*
X146945050Y-70465000D01*
X147694950Y-70465000D01*
X148387767Y-70178026D01*
X148918026Y-69647767D01*
X149205000Y-68954950D01*
X149205000Y-68205050D01*
X148918026Y-67512233D01*
X148387767Y-66981974D01*
X147694950Y-66695000D01*
X146945050Y-66695000D01*
X146252233Y-66981974D01*
X145721974Y-67512233D01*
X145435000Y-68205050D01*
X144220000Y-68205050D01*
X144220000Y-65480000D01*
X189790000Y-65480000D01*
X189790000Y-69723000D01*
G04 #@! TD*
M02*
