G04 #@! TF.GenerationSoftware,KiCad,Pcbnew,(5.0.0)*
G04 #@! TF.CreationDate,2020-10-27T08:58:59-05:00*
G04 #@! TF.ProjectId,breakout_firstproject,627265616B6F75745F66697273747072,1.0*
G04 #@! TF.SameCoordinates,Original*
G04 #@! TF.FileFunction,Legend,Bot*
G04 #@! TF.FilePolarity,Positive*
%FSLAX46Y46*%
G04 Gerber Fmt 4.6, Leading zero omitted, Abs format (unit mm)*
G04 Created by KiCad (PCBNEW (5.0.0)) date 10/27/20 08:58:59*
%MOMM*%
%LPD*%
G01*
G04 APERTURE LIST*
%ADD10C,0.250000*%
%ADD11C,0.300000*%
G04 APERTURE END LIST*
D10*
X174525729Y-107527380D02*
X174400729Y-106527380D01*
X173954300Y-107527380D01*
X173829300Y-106527380D01*
X173335252Y-107527380D02*
X173424538Y-107479761D01*
X173466205Y-107432142D01*
X173501919Y-107336904D01*
X173466205Y-107051190D01*
X173406681Y-106955952D01*
X173353110Y-106908333D01*
X173251919Y-106860714D01*
X173109062Y-106860714D01*
X173019776Y-106908333D01*
X172978110Y-106955952D01*
X172942395Y-107051190D01*
X172978110Y-107336904D01*
X173037633Y-107432142D01*
X173091205Y-107479761D01*
X173192395Y-107527380D01*
X173335252Y-107527380D01*
X171376919Y-107479761D02*
X171478110Y-107527380D01*
X171668586Y-107527380D01*
X171757872Y-107479761D01*
X171799538Y-107432142D01*
X171835252Y-107336904D01*
X171799538Y-107051190D01*
X171740014Y-106955952D01*
X171686443Y-106908333D01*
X171585252Y-106860714D01*
X171394776Y-106860714D01*
X171305491Y-106908333D01*
X170811443Y-107527380D02*
X170900729Y-107479761D01*
X170942395Y-107432142D01*
X170978110Y-107336904D01*
X170942395Y-107051190D01*
X170882872Y-106955952D01*
X170829300Y-106908333D01*
X170728110Y-106860714D01*
X170585252Y-106860714D01*
X170495967Y-106908333D01*
X170454300Y-106955952D01*
X170418586Y-107051190D01*
X170454300Y-107336904D01*
X170513824Y-107432142D01*
X170567395Y-107479761D01*
X170668586Y-107527380D01*
X170811443Y-107527380D01*
X169966205Y-106860714D02*
X170049538Y-107527380D01*
X169978110Y-106955952D02*
X169924538Y-106908333D01*
X169823348Y-106860714D01*
X169680491Y-106860714D01*
X169591205Y-106908333D01*
X169555491Y-107003571D01*
X169620967Y-107527380D01*
X168757872Y-107479761D02*
X168859062Y-107527380D01*
X169049538Y-107527380D01*
X169138824Y-107479761D01*
X169174538Y-107384523D01*
X169126919Y-107003571D01*
X169067395Y-106908333D01*
X168966205Y-106860714D01*
X168775729Y-106860714D01*
X168686443Y-106908333D01*
X168650729Y-107003571D01*
X168662633Y-107098809D01*
X169150729Y-107194047D01*
X167853110Y-107479761D02*
X167954300Y-107527380D01*
X168144776Y-107527380D01*
X168234062Y-107479761D01*
X168275729Y-107432142D01*
X168311443Y-107336904D01*
X168275729Y-107051190D01*
X168216205Y-106955952D01*
X168162633Y-106908333D01*
X168061443Y-106860714D01*
X167870967Y-106860714D01*
X167781681Y-106908333D01*
X167490014Y-106860714D02*
X167109062Y-106860714D01*
X167305491Y-106527380D02*
X167412633Y-107384523D01*
X167376919Y-107479761D01*
X167287633Y-107527380D01*
X167192395Y-107527380D01*
X166430491Y-107527380D02*
X166365014Y-107003571D01*
X166400729Y-106908333D01*
X166490014Y-106860714D01*
X166680491Y-106860714D01*
X166781681Y-106908333D01*
X166424538Y-107479761D02*
X166525729Y-107527380D01*
X166763824Y-107527380D01*
X166853110Y-107479761D01*
X166888824Y-107384523D01*
X166876919Y-107289285D01*
X166817395Y-107194047D01*
X166716205Y-107146428D01*
X166478110Y-107146428D01*
X166376919Y-107098809D01*
X165954300Y-107527380D02*
X165870967Y-106860714D01*
X165894776Y-107051190D02*
X165835252Y-106955952D01*
X165781681Y-106908333D01*
X165680491Y-106860714D01*
X165585252Y-106860714D01*
X164430491Y-107527380D02*
X164519776Y-107479761D01*
X164555491Y-107384523D01*
X164448348Y-106527380D01*
X163537633Y-106860714D02*
X163620967Y-107527380D01*
X163966205Y-106860714D02*
X164031681Y-107384523D01*
X163995967Y-107479761D01*
X163906681Y-107527380D01*
X163763824Y-107527380D01*
X163662633Y-107479761D01*
X163609062Y-107432142D01*
X162757872Y-107479761D02*
X162859062Y-107527380D01*
X163049538Y-107527380D01*
X163138824Y-107479761D01*
X163174538Y-107384523D01*
X163126919Y-107003571D01*
X163067395Y-106908333D01*
X162966205Y-106860714D01*
X162775729Y-106860714D01*
X162686443Y-106908333D01*
X162650729Y-107003571D01*
X162662633Y-107098809D01*
X163150729Y-107194047D01*
X161775729Y-106860714D02*
X161876919Y-107670238D01*
X161936443Y-107765476D01*
X161990014Y-107813095D01*
X162091205Y-107860714D01*
X162234062Y-107860714D01*
X162323348Y-107813095D01*
X161853110Y-107479761D02*
X161954300Y-107527380D01*
X162144776Y-107527380D01*
X162234062Y-107479761D01*
X162275729Y-107432142D01*
X162311443Y-107336904D01*
X162275729Y-107051190D01*
X162216205Y-106955952D01*
X162162633Y-106908333D01*
X162061443Y-106860714D01*
X161870967Y-106860714D01*
X161781681Y-106908333D01*
X161240014Y-107527380D02*
X161329300Y-107479761D01*
X161370967Y-107432142D01*
X161406681Y-107336904D01*
X161370967Y-107051190D01*
X161311443Y-106955952D01*
X161257872Y-106908333D01*
X161156681Y-106860714D01*
X161013824Y-106860714D01*
X160924538Y-106908333D01*
X160882872Y-106955952D01*
X160847157Y-107051190D01*
X160882872Y-107336904D01*
X160942395Y-107432142D01*
X160995967Y-107479761D01*
X161097157Y-107527380D01*
X161240014Y-107527380D01*
X159287633Y-107527380D02*
X159162633Y-106527380D01*
X159281681Y-107479761D02*
X159382872Y-107527380D01*
X159573348Y-107527380D01*
X159662633Y-107479761D01*
X159704300Y-107432142D01*
X159740014Y-107336904D01*
X159704300Y-107051190D01*
X159644776Y-106955952D01*
X159591205Y-106908333D01*
X159490014Y-106860714D01*
X159299538Y-106860714D01*
X159210252Y-106908333D01*
X158424538Y-107479761D02*
X158525729Y-107527380D01*
X158716205Y-107527380D01*
X158805491Y-107479761D01*
X158841205Y-107384523D01*
X158793586Y-107003571D01*
X158734062Y-106908333D01*
X158632872Y-106860714D01*
X158442395Y-106860714D01*
X158353110Y-106908333D01*
X158317395Y-107003571D01*
X158329300Y-107098809D01*
X158817395Y-107194047D01*
X172323348Y-108610714D02*
X172448348Y-109610714D01*
X172400729Y-109229761D02*
X172501919Y-109277380D01*
X172692395Y-109277380D01*
X172781681Y-109229761D01*
X172823348Y-109182142D01*
X172859062Y-109086904D01*
X172823348Y-108801190D01*
X172763824Y-108705952D01*
X172710252Y-108658333D01*
X172609062Y-108610714D01*
X172418586Y-108610714D01*
X172329300Y-108658333D01*
X171418586Y-108610714D02*
X171501919Y-109277380D01*
X171847157Y-108610714D02*
X171912633Y-109134523D01*
X171876919Y-109229761D01*
X171787633Y-109277380D01*
X171644776Y-109277380D01*
X171543586Y-109229761D01*
X171490014Y-109182142D01*
X170638824Y-109229761D02*
X170740014Y-109277380D01*
X170930491Y-109277380D01*
X171019776Y-109229761D01*
X171055491Y-109134523D01*
X171007872Y-108753571D01*
X170948348Y-108658333D01*
X170847157Y-108610714D01*
X170656681Y-108610714D01*
X170567395Y-108658333D01*
X170531681Y-108753571D01*
X170543586Y-108848809D01*
X171031681Y-108944047D01*
X168972157Y-109229761D02*
X169073348Y-109277380D01*
X169263824Y-109277380D01*
X169353110Y-109229761D01*
X169394776Y-109182142D01*
X169430491Y-109086904D01*
X169394776Y-108801190D01*
X169335252Y-108705952D01*
X169281681Y-108658333D01*
X169180491Y-108610714D01*
X168990014Y-108610714D01*
X168900729Y-108658333D01*
X168120967Y-109277380D02*
X168055491Y-108753571D01*
X168091205Y-108658333D01*
X168180491Y-108610714D01*
X168370967Y-108610714D01*
X168472157Y-108658333D01*
X168115014Y-109229761D02*
X168216205Y-109277380D01*
X168454300Y-109277380D01*
X168543586Y-109229761D01*
X168579300Y-109134523D01*
X168567395Y-109039285D01*
X168507872Y-108944047D01*
X168406681Y-108896428D01*
X168168586Y-108896428D01*
X168067395Y-108848809D01*
X167257872Y-109229761D02*
X167359062Y-109277380D01*
X167549538Y-109277380D01*
X167638824Y-109229761D01*
X167674538Y-109134523D01*
X167626919Y-108753571D01*
X167567395Y-108658333D01*
X167466205Y-108610714D01*
X167275729Y-108610714D01*
X167186443Y-108658333D01*
X167150729Y-108753571D01*
X167162633Y-108848809D01*
X167650729Y-108944047D01*
X166787633Y-109277380D02*
X166704300Y-108610714D01*
X166728110Y-108801190D02*
X166668586Y-108705952D01*
X166615014Y-108658333D01*
X166513824Y-108610714D01*
X166418586Y-108610714D01*
X164894776Y-108610714D02*
X164978110Y-109277380D01*
X165323348Y-108610714D02*
X165388824Y-109134523D01*
X165353110Y-109229761D01*
X165263824Y-109277380D01*
X165120967Y-109277380D01*
X165019776Y-109229761D01*
X164966205Y-109182142D01*
X164418586Y-108610714D02*
X164501919Y-109277380D01*
X164430491Y-108705952D02*
X164376919Y-108658333D01*
X164275729Y-108610714D01*
X164132872Y-108610714D01*
X164043586Y-108658333D01*
X164007872Y-108753571D01*
X164073348Y-109277380D01*
X162835252Y-109277380D02*
X162751919Y-108610714D01*
X162775729Y-108801190D02*
X162716205Y-108705952D01*
X162662633Y-108658333D01*
X162561443Y-108610714D01*
X162466205Y-108610714D01*
X161787633Y-109277380D02*
X161722157Y-108753571D01*
X161757872Y-108658333D01*
X161847157Y-108610714D01*
X162037633Y-108610714D01*
X162138824Y-108658333D01*
X161781681Y-109229761D02*
X161882872Y-109277380D01*
X162120967Y-109277380D01*
X162210252Y-109229761D01*
X162245967Y-109134523D01*
X162234062Y-109039285D01*
X162174538Y-108944047D01*
X162073348Y-108896428D01*
X161835252Y-108896428D01*
X161734062Y-108848809D01*
X161323348Y-108610714D02*
X161168586Y-109277380D01*
X160847157Y-108610714D02*
X161168586Y-109277380D01*
X161293586Y-109515476D01*
X161347157Y-109563095D01*
X161448348Y-109610714D01*
X160406681Y-109277380D02*
X160495967Y-109229761D01*
X160537633Y-109182142D01*
X160573348Y-109086904D01*
X160537633Y-108801190D01*
X160478110Y-108705952D01*
X160424538Y-108658333D01*
X160323348Y-108610714D01*
X160180491Y-108610714D01*
X160091205Y-108658333D01*
X160049538Y-108705952D01*
X160013824Y-108801190D01*
X160049538Y-109086904D01*
X160109062Y-109182142D01*
X160162633Y-109229761D01*
X160263824Y-109277380D01*
X160406681Y-109277380D01*
D11*
X186441428Y-101487857D02*
X185941428Y-101487857D01*
X185727142Y-102273571D02*
X186441428Y-102273571D01*
X186441428Y-100773571D01*
X185727142Y-100773571D01*
X185155714Y-102202142D02*
X185012857Y-102273571D01*
X184727142Y-102273571D01*
X184584285Y-102202142D01*
X184512857Y-102059285D01*
X184512857Y-101987857D01*
X184584285Y-101845000D01*
X184727142Y-101773571D01*
X184941428Y-101773571D01*
X185084285Y-101702142D01*
X185155714Y-101559285D01*
X185155714Y-101487857D01*
X185084285Y-101345000D01*
X184941428Y-101273571D01*
X184727142Y-101273571D01*
X184584285Y-101345000D01*
X184084285Y-101273571D02*
X183512857Y-101273571D01*
X183870000Y-100773571D02*
X183870000Y-102059285D01*
X183798571Y-102202142D01*
X183655714Y-102273571D01*
X183512857Y-102273571D01*
X182798571Y-102273571D02*
X182941428Y-102202142D01*
X183012857Y-102130714D01*
X183084285Y-101987857D01*
X183084285Y-101559285D01*
X183012857Y-101416428D01*
X182941428Y-101345000D01*
X182798571Y-101273571D01*
X182584285Y-101273571D01*
X182441428Y-101345000D01*
X182370000Y-101416428D01*
X182298571Y-101559285D01*
X182298571Y-101987857D01*
X182370000Y-102130714D01*
X182441428Y-102202142D01*
X182584285Y-102273571D01*
X182798571Y-102273571D01*
X180727142Y-101273571D02*
X180155714Y-101273571D01*
X180512857Y-102273571D02*
X180512857Y-100987857D01*
X180441428Y-100845000D01*
X180298571Y-100773571D01*
X180155714Y-100773571D01*
X179012857Y-101273571D02*
X179012857Y-102273571D01*
X179655714Y-101273571D02*
X179655714Y-102059285D01*
X179584285Y-102202142D01*
X179441428Y-102273571D01*
X179227142Y-102273571D01*
X179084285Y-102202142D01*
X179012857Y-102130714D01*
X177727142Y-102202142D02*
X177870000Y-102273571D01*
X178155714Y-102273571D01*
X178298571Y-102202142D01*
X178370000Y-102059285D01*
X178370000Y-101487857D01*
X178298571Y-101345000D01*
X178155714Y-101273571D01*
X177870000Y-101273571D01*
X177727142Y-101345000D01*
X177655714Y-101487857D01*
X177655714Y-101630714D01*
X178370000Y-101773571D01*
X175227142Y-102273571D02*
X175227142Y-100773571D01*
X175227142Y-102202142D02*
X175370000Y-102273571D01*
X175655714Y-102273571D01*
X175798571Y-102202142D01*
X175870000Y-102130714D01*
X175941428Y-101987857D01*
X175941428Y-101559285D01*
X175870000Y-101416428D01*
X175798571Y-101345000D01*
X175655714Y-101273571D01*
X175370000Y-101273571D01*
X175227142Y-101345000D01*
X174512857Y-102273571D02*
X174512857Y-101273571D01*
X174512857Y-100773571D02*
X174584285Y-100845000D01*
X174512857Y-100916428D01*
X174441428Y-100845000D01*
X174512857Y-100773571D01*
X174512857Y-100916428D01*
X173870000Y-102202142D02*
X173727142Y-102273571D01*
X173441428Y-102273571D01*
X173298571Y-102202142D01*
X173227142Y-102059285D01*
X173227142Y-101987857D01*
X173298571Y-101845000D01*
X173441428Y-101773571D01*
X173655714Y-101773571D01*
X173798571Y-101702142D01*
X173870000Y-101559285D01*
X173870000Y-101487857D01*
X173798571Y-101345000D01*
X173655714Y-101273571D01*
X173441428Y-101273571D01*
X173298571Y-101345000D01*
X172012857Y-102202142D02*
X172155714Y-102273571D01*
X172441428Y-102273571D01*
X172584285Y-102202142D01*
X172655714Y-102059285D01*
X172655714Y-101487857D01*
X172584285Y-101345000D01*
X172441428Y-101273571D01*
X172155714Y-101273571D01*
X172012857Y-101345000D01*
X171941428Y-101487857D01*
X171941428Y-101630714D01*
X172655714Y-101773571D01*
X171298571Y-101273571D02*
X171298571Y-102273571D01*
X171298571Y-101416428D02*
X171227142Y-101345000D01*
X171084285Y-101273571D01*
X170870000Y-101273571D01*
X170727142Y-101345000D01*
X170655714Y-101487857D01*
X170655714Y-102273571D01*
X171370000Y-100916428D02*
X171298571Y-100845000D01*
X171155714Y-100773571D01*
X170870000Y-100916428D01*
X170727142Y-100845000D01*
X170655714Y-100773571D01*
X169298571Y-102273571D02*
X169298571Y-101487857D01*
X169370000Y-101345000D01*
X169512857Y-101273571D01*
X169798571Y-101273571D01*
X169941428Y-101345000D01*
X169298571Y-102202142D02*
X169441428Y-102273571D01*
X169798571Y-102273571D01*
X169941428Y-102202142D01*
X170012857Y-102059285D01*
X170012857Y-101916428D01*
X169941428Y-101773571D01*
X169798571Y-101702142D01*
X169441428Y-101702142D01*
X169298571Y-101630714D01*
X167941428Y-102273571D02*
X167941428Y-100773571D01*
X167941428Y-102202142D02*
X168084285Y-102273571D01*
X168370000Y-102273571D01*
X168512857Y-102202142D01*
X168584285Y-102130714D01*
X168655714Y-101987857D01*
X168655714Y-101559285D01*
X168584285Y-101416428D01*
X168512857Y-101345000D01*
X168370000Y-101273571D01*
X168084285Y-101273571D01*
X167941428Y-101345000D01*
X167012857Y-102273571D02*
X167155714Y-102202142D01*
X167227142Y-102130714D01*
X167298571Y-101987857D01*
X167298571Y-101559285D01*
X167227142Y-101416428D01*
X167155714Y-101345000D01*
X167012857Y-101273571D01*
X166798571Y-101273571D01*
X166655714Y-101345000D01*
X166584285Y-101416428D01*
X166512857Y-101559285D01*
X166512857Y-101987857D01*
X166584285Y-102130714D01*
X166655714Y-102202142D01*
X166798571Y-102273571D01*
X167012857Y-102273571D01*
X164727142Y-101273571D02*
X164727142Y-102773571D01*
X164727142Y-101345000D02*
X164584285Y-101273571D01*
X164298571Y-101273571D01*
X164155714Y-101345000D01*
X164084285Y-101416428D01*
X164012857Y-101559285D01*
X164012857Y-101987857D01*
X164084285Y-102130714D01*
X164155714Y-102202142D01*
X164298571Y-102273571D01*
X164584285Y-102273571D01*
X164727142Y-102202142D01*
X162727142Y-102273571D02*
X162727142Y-101487857D01*
X162798571Y-101345000D01*
X162941428Y-101273571D01*
X163227142Y-101273571D01*
X163370000Y-101345000D01*
X162727142Y-102202142D02*
X162870000Y-102273571D01*
X163227142Y-102273571D01*
X163370000Y-102202142D01*
X163441428Y-102059285D01*
X163441428Y-101916428D01*
X163370000Y-101773571D01*
X163227142Y-101702142D01*
X162870000Y-101702142D01*
X162727142Y-101630714D01*
X162012857Y-102273571D02*
X162012857Y-101273571D01*
X162012857Y-101559285D02*
X161941428Y-101416428D01*
X161870000Y-101345000D01*
X161727142Y-101273571D01*
X161584285Y-101273571D01*
X160441428Y-102273571D02*
X160441428Y-101487857D01*
X160512857Y-101345000D01*
X160655714Y-101273571D01*
X160941428Y-101273571D01*
X161084285Y-101345000D01*
X160441428Y-102202142D02*
X160584285Y-102273571D01*
X160941428Y-102273571D01*
X161084285Y-102202142D01*
X161155714Y-102059285D01*
X161155714Y-101916428D01*
X161084285Y-101773571D01*
X160941428Y-101702142D01*
X160584285Y-101702142D01*
X160441428Y-101630714D01*
X158370000Y-102273571D02*
X158512857Y-102202142D01*
X158584285Y-102059285D01*
X158584285Y-100773571D01*
X157155714Y-102273571D02*
X157155714Y-101487857D01*
X157227142Y-101345000D01*
X157370000Y-101273571D01*
X157655714Y-101273571D01*
X157798571Y-101345000D01*
X157155714Y-102202142D02*
X157298571Y-102273571D01*
X157655714Y-102273571D01*
X157798571Y-102202142D01*
X157870000Y-102059285D01*
X157870000Y-101916428D01*
X157798571Y-101773571D01*
X157655714Y-101702142D01*
X157298571Y-101702142D01*
X157155714Y-101630714D01*
X154655714Y-102202142D02*
X154798571Y-102273571D01*
X155084285Y-102273571D01*
X155227142Y-102202142D01*
X155298571Y-102130714D01*
X155370000Y-101987857D01*
X155370000Y-101559285D01*
X155298571Y-101416428D01*
X155227142Y-101345000D01*
X155084285Y-101273571D01*
X154798571Y-101273571D01*
X154655714Y-101345000D01*
X153798571Y-102273571D02*
X153941428Y-102202142D01*
X154012857Y-102059285D01*
X154012857Y-100773571D01*
X152584285Y-102273571D02*
X152584285Y-101487857D01*
X152655714Y-101345000D01*
X152798571Y-101273571D01*
X153084285Y-101273571D01*
X153227142Y-101345000D01*
X152584285Y-102202142D02*
X152727142Y-102273571D01*
X153084285Y-102273571D01*
X153227142Y-102202142D01*
X153298571Y-102059285D01*
X153298571Y-101916428D01*
X153227142Y-101773571D01*
X153084285Y-101702142D01*
X152727142Y-101702142D01*
X152584285Y-101630714D01*
X151941428Y-102202142D02*
X151798571Y-102273571D01*
X151512857Y-102273571D01*
X151370000Y-102202142D01*
X151298571Y-102059285D01*
X151298571Y-101987857D01*
X151370000Y-101845000D01*
X151512857Y-101773571D01*
X151727142Y-101773571D01*
X151870000Y-101702142D01*
X151941428Y-101559285D01*
X151941428Y-101487857D01*
X151870000Y-101345000D01*
X151727142Y-101273571D01*
X151512857Y-101273571D01*
X151370000Y-101345000D01*
X150084285Y-102202142D02*
X150227142Y-102273571D01*
X150512857Y-102273571D01*
X150655714Y-102202142D01*
X150727142Y-102059285D01*
X150727142Y-101487857D01*
X150655714Y-101345000D01*
X150512857Y-101273571D01*
X150227142Y-101273571D01*
X150084285Y-101345000D01*
X150012857Y-101487857D01*
X150012857Y-101630714D01*
X150727142Y-101773571D01*
X147584285Y-102273571D02*
X147584285Y-100773571D01*
X147584285Y-102202142D02*
X147727142Y-102273571D01*
X148012857Y-102273571D01*
X148155714Y-102202142D01*
X148227142Y-102130714D01*
X148298571Y-101987857D01*
X148298571Y-101559285D01*
X148227142Y-101416428D01*
X148155714Y-101345000D01*
X148012857Y-101273571D01*
X147727142Y-101273571D01*
X147584285Y-101345000D01*
X146298571Y-102202142D02*
X146441428Y-102273571D01*
X146727142Y-102273571D01*
X146870000Y-102202142D01*
X146941428Y-102059285D01*
X146941428Y-101487857D01*
X146870000Y-101345000D01*
X146727142Y-101273571D01*
X146441428Y-101273571D01*
X146298571Y-101345000D01*
X146227142Y-101487857D01*
X146227142Y-101630714D01*
X146941428Y-101773571D01*
X179905714Y-104823571D02*
X179905714Y-103323571D01*
X179548571Y-103323571D01*
X179334285Y-103395000D01*
X179191428Y-103537857D01*
X179120000Y-103680714D01*
X179048571Y-103966428D01*
X179048571Y-104180714D01*
X179120000Y-104466428D01*
X179191428Y-104609285D01*
X179334285Y-104752142D01*
X179548571Y-104823571D01*
X179905714Y-104823571D01*
X178405714Y-104823571D02*
X178405714Y-103823571D01*
X178405714Y-103323571D02*
X178477142Y-103395000D01*
X178405714Y-103466428D01*
X178334285Y-103395000D01*
X178405714Y-103323571D01*
X178405714Y-103466428D01*
X177762857Y-104752142D02*
X177620000Y-104823571D01*
X177334285Y-104823571D01*
X177191428Y-104752142D01*
X177120000Y-104609285D01*
X177120000Y-104537857D01*
X177191428Y-104395000D01*
X177334285Y-104323571D01*
X177548571Y-104323571D01*
X177691428Y-104252142D01*
X177762857Y-104109285D01*
X177762857Y-104037857D01*
X177691428Y-103895000D01*
X177548571Y-103823571D01*
X177334285Y-103823571D01*
X177191428Y-103895000D01*
X175905714Y-104752142D02*
X176048571Y-104823571D01*
X176334285Y-104823571D01*
X176477142Y-104752142D01*
X176548571Y-104609285D01*
X176548571Y-104037857D01*
X176477142Y-103895000D01*
X176334285Y-103823571D01*
X176048571Y-103823571D01*
X175905714Y-103895000D01*
X175834285Y-104037857D01*
X175834285Y-104180714D01*
X176548571Y-104323571D01*
X175191428Y-103823571D02*
X175191428Y-104823571D01*
X175191428Y-103966428D02*
X175120000Y-103895000D01*
X174977142Y-103823571D01*
X174762857Y-103823571D01*
X174620000Y-103895000D01*
X174548571Y-104037857D01*
X174548571Y-104823571D01*
X175262857Y-103466428D02*
X175191428Y-103395000D01*
X175048571Y-103323571D01*
X174762857Y-103466428D01*
X174620000Y-103395000D01*
X174548571Y-103323571D01*
X173620000Y-104823571D02*
X173762857Y-104752142D01*
X173834285Y-104680714D01*
X173905714Y-104537857D01*
X173905714Y-104109285D01*
X173834285Y-103966428D01*
X173762857Y-103895000D01*
X173620000Y-103823571D01*
X173405714Y-103823571D01*
X173262857Y-103895000D01*
X173191428Y-103966428D01*
X173120000Y-104109285D01*
X173120000Y-104537857D01*
X173191428Y-104680714D01*
X173262857Y-104752142D01*
X173405714Y-104823571D01*
X173620000Y-104823571D01*
X170691428Y-104823571D02*
X170691428Y-103323571D01*
X170691428Y-104752142D02*
X170834285Y-104823571D01*
X171120000Y-104823571D01*
X171262857Y-104752142D01*
X171334285Y-104680714D01*
X171405714Y-104537857D01*
X171405714Y-104109285D01*
X171334285Y-103966428D01*
X171262857Y-103895000D01*
X171120000Y-103823571D01*
X170834285Y-103823571D01*
X170691428Y-103895000D01*
X169405714Y-104752142D02*
X169548571Y-104823571D01*
X169834285Y-104823571D01*
X169977142Y-104752142D01*
X170048571Y-104609285D01*
X170048571Y-104037857D01*
X169977142Y-103895000D01*
X169834285Y-103823571D01*
X169548571Y-103823571D01*
X169405714Y-103895000D01*
X169334285Y-104037857D01*
X169334285Y-104180714D01*
X170048571Y-104323571D01*
X167548571Y-103823571D02*
X167548571Y-105323571D01*
X167548571Y-103895000D02*
X167405714Y-103823571D01*
X167120000Y-103823571D01*
X166977142Y-103895000D01*
X166905714Y-103966428D01*
X166834285Y-104109285D01*
X166834285Y-104537857D01*
X166905714Y-104680714D01*
X166977142Y-104752142D01*
X167120000Y-104823571D01*
X167405714Y-104823571D01*
X167548571Y-104752142D01*
X166191428Y-104823571D02*
X166191428Y-103823571D01*
X166191428Y-104109285D02*
X166120000Y-103966428D01*
X166048571Y-103895000D01*
X165905714Y-103823571D01*
X165762857Y-103823571D01*
X165048571Y-104823571D02*
X165191428Y-104752142D01*
X165262857Y-104680714D01*
X165334285Y-104537857D01*
X165334285Y-104109285D01*
X165262857Y-103966428D01*
X165191428Y-103895000D01*
X165048571Y-103823571D01*
X164834285Y-103823571D01*
X164691428Y-103895000D01*
X164620000Y-103966428D01*
X164548571Y-104109285D01*
X164548571Y-104537857D01*
X164620000Y-104680714D01*
X164691428Y-104752142D01*
X164834285Y-104823571D01*
X165048571Y-104823571D01*
X163262857Y-104823571D02*
X163262857Y-103323571D01*
X163262857Y-104752142D02*
X163405714Y-104823571D01*
X163691428Y-104823571D01*
X163834285Y-104752142D01*
X163905714Y-104680714D01*
X163977142Y-104537857D01*
X163977142Y-104109285D01*
X163905714Y-103966428D01*
X163834285Y-103895000D01*
X163691428Y-103823571D01*
X163405714Y-103823571D01*
X163262857Y-103895000D01*
X161905714Y-103823571D02*
X161905714Y-104823571D01*
X162548571Y-103823571D02*
X162548571Y-104609285D01*
X162477142Y-104752142D01*
X162334285Y-104823571D01*
X162120000Y-104823571D01*
X161977142Y-104752142D01*
X161905714Y-104680714D01*
X160548571Y-104752142D02*
X160691428Y-104823571D01*
X160977142Y-104823571D01*
X161120000Y-104752142D01*
X161191428Y-104680714D01*
X161262857Y-104537857D01*
X161262857Y-104109285D01*
X161191428Y-103966428D01*
X161120000Y-103895000D01*
X160977142Y-103823571D01*
X160691428Y-103823571D01*
X160548571Y-103895000D01*
X160120000Y-103823571D02*
X159548571Y-103823571D01*
X159905714Y-103323571D02*
X159905714Y-104609285D01*
X159834285Y-104752142D01*
X159691428Y-104823571D01*
X159548571Y-104823571D01*
X158834285Y-104823571D02*
X158977142Y-104752142D01*
X159048571Y-104680714D01*
X159120000Y-104537857D01*
X159120000Y-104109285D01*
X159048571Y-103966428D01*
X158977142Y-103895000D01*
X158834285Y-103823571D01*
X158620000Y-103823571D01*
X158477142Y-103895000D01*
X158405714Y-103966428D01*
X158334285Y-104109285D01*
X158334285Y-104537857D01*
X158405714Y-104680714D01*
X158477142Y-104752142D01*
X158620000Y-104823571D01*
X158834285Y-104823571D01*
X157762857Y-104752142D02*
X157620000Y-104823571D01*
X157334285Y-104823571D01*
X157191428Y-104752142D01*
X157120000Y-104609285D01*
X157120000Y-104537857D01*
X157191428Y-104395000D01*
X157334285Y-104323571D01*
X157548571Y-104323571D01*
X157691428Y-104252142D01*
X157762857Y-104109285D01*
X157762857Y-104037857D01*
X157691428Y-103895000D01*
X157548571Y-103823571D01*
X157334285Y-103823571D01*
X157191428Y-103895000D01*
X155334285Y-104823571D02*
X155334285Y-103323571D01*
X154405714Y-104823571D02*
X154548571Y-104752142D01*
X154620000Y-104680714D01*
X154691428Y-104537857D01*
X154691428Y-104109285D01*
X154620000Y-103966428D01*
X154548571Y-103895000D01*
X154405714Y-103823571D01*
X154191428Y-103823571D01*
X154048571Y-103895000D01*
X153977142Y-103966428D01*
X153905714Y-104109285D01*
X153905714Y-104537857D01*
X153977142Y-104680714D01*
X154048571Y-104752142D01*
X154191428Y-104823571D01*
X154405714Y-104823571D01*
X153477142Y-103323571D02*
X152620000Y-103323571D01*
X153048571Y-104823571D02*
X153048571Y-103323571D01*
M02*
